<svg viewBox="0 0 400 400" xmlns="http://www.w3.org/2000/svg">
  <defs>
    <linearGradient id="bg6" x1="0" y1="0" x2="1" y2="1">
      <stop offset="0%" stop-color="#0c0f14"/>
      <stop offset="100%" stop-color="#000000"/>
    </linearGradient>
  </defs>
  <rect width="400" height="400" fill="url(#bg6)"/>
  <g opacity="0.08" stroke="#ffffff" stroke-width="1">
    <line x1="0" y1="100" x2="400" y2="100"/><line x1="0" y1="200" x2="400" y2="200"/><line x1="0" y1="300" x2="400" y2="300"/>
    <line x1="100" y1="0" x2="100" y2="400"/><line x1="200" y1="0" x2="200" y2="400"/><line x1="300" y1="0" x2="300" y2="400"/>
  </g>
  <g transform="translate(200,200)">
    <rect x="-110" y="-80" width="220" height="160" rx="4" fill="none" stroke="#e7e9ee" stroke-width="2.5"/>
    <rect x="-40" y="-30" width="80" height="60" fill="none" stroke="#2E6BFF" stroke-width="2.5"/>
    <line x1="-40" y1="-15" x2="-60" y2="-15" stroke="#e7e9ee" stroke-width="1.5"/>
    <line x1="-40" y1="0" x2="-60" y2="0" stroke="#e7e9ee" stroke-width="1.5"/>
    <line x1="-40" y1="15" x2="-60" y2="15" stroke="#e7e9ee" stroke-width="1.5"/>
    <line x1="40" y1="-15" x2="60" y2="-15" stroke="#e7e9ee" stroke-width="1.5"/>
    <line x1="40" y1="0" x2="60" y2="0" stroke="#e7e9ee" stroke-width="1.5"/>
    <line x1="40" y1="15" x2="60" y2="15" stroke="#e7e9ee" stroke-width="1.5"/>
    <!-- antenna -->
    <path d="M 80 -60 L 100 -95" stroke="#e7e9ee" stroke-width="2.5" fill="none"/>
    <circle cx="100" cy="-95" r="4" fill="none" stroke="#e7e9ee" stroke-width="2"/>
    <!-- connectors bottom -->
    <rect x="-90" y="50" width="30" height="12" fill="none" stroke="#6b7280" stroke-width="1.5"/>
    <rect x="60" y="50" width="30" height="12" fill="none" stroke="#6b7280" stroke-width="1.5"/>
    <!-- signal dots -->
    <circle cx="105" cy="-108" r="2" fill="#2E6BFF"/>
    <circle cx="112" cy="-115" r="1.6" fill="#2E6BFF" opacity="0.7"/>
    <circle cx="118" cy="-121" r="1.2" fill="#2E6BFF" opacity="0.4"/>
  </g>
  <text x="24" y="368" font-family="monospace" font-size="12" fill="#6b7280" letter-spacing="2">TELEMETRY // ESP32</text>
</svg>
